<?xml version="1.0" encoding="UTF-8" standalone="no"?><!DOCTYPE svg PUBLIC "-//W3C//DTD SVG 1.1//EN" "http://www.w3.org/Graphics/SVG/1.1/DTD/svg11.dtd"><svg width="100%" height="100%" viewBox="0 0 75 40" version="1.1" xmlns="http://www.w3.org/2000/svg" xmlns:xlink="http://www.w3.org/1999/xlink" xml:space="preserve" xmlns:serif="http://www.serif.com/" style="fill-rule:evenodd;clip-rule:evenodd;stroke-linejoin:round;stroke-miterlimit:1.41421;"><path d="M10.413,35.049c0.091,-0.008 0.174,-0.008 0.235,-0.008c0.499,0 0.801,0.28 0.778,0.711c-0.022,0.37 -0.348,0.719 -0.68,0.719l-0.545,0l0.212,-1.422Zm4.606,-0.953l-1.262,0l-0.416,2.79c-0.046,0.318 -0.068,0.598 -0.053,0.839c0.045,0.84 0.862,1.445 1.943,1.445c0.703,0 1.308,-0.197 1.701,-0.552c0.371,-0.34 0.522,-0.711 0.666,-1.679l0.423,-2.843l-1.263,0l-0.423,2.836c-0.068,0.461 -0.151,0.741 -0.272,0.899c-0.136,0.197 -0.408,0.303 -0.749,0.303c-0.453,0 -0.763,-0.28 -0.763,-0.68c0,-0.159 0.007,-0.258 0.03,-0.409l0.438,-2.949Zm4.312,-0.076l-0.779,0.167l-0.749,4.869l1.195,0l0.424,-2.767l2.026,2.866l0.801,-0.167l0.749,-4.892l-1.195,0l-0.431,2.828l-2.041,-2.904Zm7.343,1.74l-0.786,-1.755l-1.301,0.204l1.316,2.7l-0.325,2.147l1.262,0l0.326,-2.147l2.102,-2.7l-1.225,-0.204l-1.369,1.755Zm4.478,-0.658c0.59,0 0.96,0.446 0.96,1.172c0,0.386 -0.129,0.862 -0.333,1.21c-0.204,0.362 -0.552,0.567 -0.937,0.567c-0.583,0 -0.938,-0.439 -0.938,-1.157c0,-1.006 0.552,-1.792 1.248,-1.792m0.106,-1.119c-0.787,0.037 -1.407,0.325 -1.913,0.87c-0.507,0.544 -0.817,1.353 -0.817,2.124c0,1.361 0.832,2.193 2.2,2.193c1.55,0 2.76,-1.293 2.76,-2.957c0,-1.383 -0.907,-2.299 -2.23,-2.23m4.243,0.113l-1.263,0l-0.416,2.79c-0.045,0.318 -0.068,0.598 -0.053,0.839c0.046,0.84 0.862,1.445 1.944,1.445c0.703,0 1.308,-0.197 1.701,-0.552c0.37,-0.34 0.522,-0.711 0.665,-1.679l0.424,-2.843l-1.263,0l-0.423,2.836c-0.068,0.461 -0.152,0.741 -0.273,0.899c-0.136,0.197 -0.408,0.303 -0.748,0.303c-0.454,0 -0.764,-0.28 -0.764,-0.68c0,-0.159 0.008,-0.258 0.03,-0.409l0.439,-2.949Zm4.644,0.953c0.091,-0.008 0.174,-0.008 0.234,-0.008c0.499,0 0.802,0.28 0.779,0.711c-0.022,0.37 -0.348,0.719 -0.68,0.719l-0.545,0l0.212,-1.422Zm-1.86,4.007l1.263,0l0.257,-1.716l0.423,0l0.862,1.716l1.467,0l-1.187,-2.041c0.658,-0.288 1.028,-0.802 1.028,-1.414c0,-0.499 -0.211,-0.938 -0.567,-1.195c-0.348,-0.25 -0.801,-0.355 -1.55,-0.355c-0.401,0 -0.688,0.015 -1.255,0.075l-0.741,4.93Zm7.321,-2.132l0.4,0c0.477,0 0.787,0.265 0.787,0.673c0,0.408 -0.333,0.635 -0.923,0.635c-0.151,0 -0.272,-0.015 -0.453,-0.053l0.189,-1.255Zm0.302,-2.019c0.098,-0.008 0.174,-0.008 0.25,-0.008c0.446,0 0.718,0.242 0.695,0.613c-0.022,0.34 -0.295,0.635 -0.574,0.635l-0.56,0l0.189,-1.24Zm-1.837,4.061c0.786,0.121 1.096,0.151 1.716,0.151c0.605,0 1.081,-0.076 1.452,-0.235c0.544,-0.227 0.869,-0.703 0.869,-1.292c0,-0.53 -0.257,-0.9 -0.794,-1.15c0.507,-0.227 0.779,-0.613 0.779,-1.126c0,-0.802 -0.71,-1.263 -1.958,-1.263c-0.537,0 -0.741,0.015 -1.339,0.075l-0.725,4.84Zm6.224,-4.87l-1.263,0l-0.416,2.79c-0.045,0.318 -0.068,0.598 -0.053,0.839c0.046,0.84 0.862,1.445 1.944,1.445c0.703,0 1.308,-0.197 1.701,-0.552c0.371,-0.34 0.522,-0.711 0.665,-1.679l0.424,-2.843l-1.263,0l-0.423,2.836c-0.068,0.461 -0.151,0.741 -0.272,0.899c-0.136,0.197 -0.409,0.303 -0.749,0.303c-0.454,0 -0.764,-0.28 -0.764,-0.68c0,-0.159 0.008,-0.258 0.03,-0.409l0.439,-2.949Zm6.466,0.257c-0.536,-0.279 -0.892,-0.37 -1.497,-0.37c-0.37,0 -0.809,0.121 -1.073,0.295c-0.401,0.264 -0.658,0.733 -0.658,1.194c0,0.416 0.113,0.696 0.393,0.976c0.166,0.166 0.332,0.302 0.801,0.665c0.235,0.182 0.326,0.31 0.326,0.491c0,0.28 -0.235,0.485 -0.568,0.485c-0.393,0 -0.877,-0.243 -1.217,-0.605l-0.31,1.156c0.159,0.114 0.212,0.144 0.363,0.212c0.371,0.182 0.968,0.318 1.338,0.318c0.514,0 0.855,-0.076 1.18,-0.265c0.499,-0.28 0.748,-0.718 0.748,-1.308c0,-0.257 -0.105,-0.544 -0.279,-0.779c-0.144,-0.182 -0.318,-0.34 -0.704,-0.62c-0.514,-0.378 -0.62,-0.506 -0.604,-0.726c0.015,-0.249 0.272,-0.438 0.567,-0.416c0.332,0.023 0.627,0.144 0.975,0.401l0.219,-1.104Zm1.998,-0.257l-1.263,0l-0.741,4.96l1.263,0l0.741,-4.96Zm1.302,-0.076l-0.779,0.167l-0.749,4.869l1.195,0l0.424,-2.767l2.026,2.866l0.802,-0.167l0.748,-4.892l-1.195,0l-0.431,2.828l-2.041,-2.904Zm5.256,1.059l1.694,0l0.144,-0.983l-2.912,0l-0.74,4.96l3.183,0l0.265,-1.013l-2.072,0l0.159,-1.059l1.451,0l0.144,-0.937l-1.46,0l0.144,-0.968Zm5.438,-0.726c-0.537,-0.279 -0.892,-0.37 -1.497,-0.37c-0.37,0 -0.809,0.121 -1.074,0.295c-0.401,0.264 -0.658,0.733 -0.658,1.194c0,0.416 0.114,0.696 0.394,0.976c0.166,0.166 0.332,0.302 0.801,0.665c0.235,0.182 0.325,0.31 0.325,0.491c0,0.28 -0.234,0.485 -0.567,0.485c-0.393,0 -0.877,-0.243 -1.217,-0.605l-0.31,1.156c0.159,0.114 0.212,0.144 0.363,0.212c0.37,0.182 0.968,0.318 1.338,0.318c0.514,0 0.855,-0.076 1.18,-0.265c0.499,-0.28 0.748,-0.718 0.748,-1.308c0,-0.257 -0.106,-0.544 -0.279,-0.779c-0.144,-0.182 -0.318,-0.34 -0.704,-0.62c-0.514,-0.378 -0.62,-0.506 -0.605,-0.726c0.016,-0.249 0.273,-0.438 0.568,-0.416c0.332,0.023 0.627,0.144 0.975,0.401l0.219,-1.104Zm3.676,0c-0.537,-0.279 -0.892,-0.37 -1.497,-0.37c-0.37,0 -0.809,0.121 -1.073,0.295c-0.401,0.264 -0.658,0.733 -0.658,1.194c0,0.416 0.113,0.696 0.393,0.976c0.166,0.166 0.332,0.302 0.801,0.665c0.235,0.182 0.326,0.31 0.326,0.491c0,0.28 -0.235,0.485 -0.568,0.485c-0.393,0 -0.877,-0.243 -1.217,-0.605l-0.31,1.156c0.159,0.114 0.212,0.144 0.363,0.212c0.371,0.182 0.968,0.318 1.338,0.318c0.514,0 0.855,-0.076 1.18,-0.265c0.499,-0.28 0.748,-0.718 0.748,-1.308c0,-0.257 -0.105,-0.544 -0.279,-0.779c-0.144,-0.182 -0.318,-0.34 -0.704,-0.62c-0.514,-0.378 -0.62,-0.506 -0.604,-0.726c0.015,-0.249 0.272,-0.438 0.567,-0.416c0.332,0.023 0.627,0.144 0.975,0.401l0.219,-1.104Zm-14.305,-14.363c0,-1.906 0.895,-3.686 4.565,-3.686l0,2.183l-0.1,0c-1.521,0 -2.299,0.711 -2.299,2.282l0,4.894l-2.166,0l0,-5.673Zm14.289,5.673l-2.167,0l0,-1.306c-0.579,1.058 -1.786,1.587 -3.059,1.587c-2.911,0 -4.615,-2.265 -4.615,-4.828c0,-2.861 2.068,-4.812 4.615,-4.812c1.654,0 2.662,0.877 3.059,1.604l0,-1.323l2.167,0l0,9.078Zm-7.674,-4.498c0,1.125 0.81,2.762 2.762,2.762c1.207,0 2.001,-0.629 2.415,-1.455c0.214,-0.397 0.314,-0.827 0.347,-1.274c0.017,-0.429 -0.066,-0.876 -0.248,-1.272c-0.381,-0.86 -1.224,-1.604 -2.531,-1.604c-1.753,0 -2.745,1.422 -2.745,2.827l0,0.016Zm-9.768,1.847c-0.423,0.66 -1.105,1.08 -2.092,1.08c-1.241,0.017 -2.531,-0.794 -2.63,-2.248l7.311,0c0.181,-1.588 -0.232,-3.01 -1.34,-4.151c-0.844,-0.876 -2.035,-1.389 -3.391,-1.389c-2.745,0 -4.763,2.266 -4.763,4.845c0,2.53 2.001,4.795 4.796,4.795c0.943,0 1.836,-0.264 2.597,-0.794c0.723,-0.487 1.34,-1.202 1.769,-2.138l-2.257,0Zm-2.125,-4.872c1.587,-0.017 2.497,1.19 2.58,2.05l-5.144,0c0.083,-0.893 0.959,-2.05 2.564,-2.05m-29.767,0.505c0.835,0 1.561,0.454 1.834,1.434l-3.759,0c0.272,-0.926 1.108,-1.434 1.925,-1.434m-13.532,4.43l0,-6.972l1.707,0c2.269,0 3.758,1.38 3.758,3.486c0,2.106 -1.489,3.486 -3.758,3.486l-1.707,0Zm18.114,-0.146c-0.726,1.948 -2.421,3.015 -4.6,3.015c-2.633,0 -4.812,-1.943 -4.812,-4.83c0,-2.869 2.179,-4.83 4.83,-4.83c2.578,0 4.648,1.852 4.702,4.83l0,0.745l-6.681,0c0.236,1.089 0.98,1.761 1.961,1.761c0.568,0 1.214,-0.117 1.696,-0.691l2.904,0Zm7.719,-0.082c0,-3.212 -4.572,-2.409 -4.572,-3.835c0,-0.409 0.409,-0.606 0.77,-0.606c0.475,0 0.836,0.18 0.852,0.688l2.671,0c-0.18,-1.934 -1.671,-2.867 -3.49,-2.867c-1.753,0 -3.523,1.097 -3.523,2.998c0,1.279 1.081,1.983 2.163,2.376c0.393,0.148 0.786,0.279 1.18,0.41c0.491,0.197 1.229,0.393 1.229,1.049c0,0.475 -0.541,0.704 -0.951,0.704c-0.541,0 -0.95,-0.278 -1.032,-0.835l-2.704,0c0.213,1.999 1.802,3.015 3.703,3.015c1.852,0 3.704,-1.049 3.704,-3.097m-28.829,-9.341l0,12.166l4.812,0c4.012,0 6.663,-2.47 6.663,-6.083c0,-3.613 -2.651,-6.083 -6.663,-6.083l-4.812,0Zm39.013,12.166l-4.288,-4.776l3.995,-4.339l-3.504,0l-2.888,3.105l-0.006,-7.063l-2.906,0l0,13.073l2.906,0l0.009,-3.287l2.96,3.287l3.722,0Zm-15.351,-18.325c1.056,-1.054 2.513,-1.707 4.123,-1.707c3.223,0 5.836,2.613 5.836,5.836c0,0.013 0,0.025 0,0.037c11.128,1.663 8.767,17.863 -1.619,17.863l-31.78,0l0.012,-0.009c-0.127,0.006 -0.256,0.009 -0.385,0.009c-4.64,0 -8.402,-3.762 -8.402,-8.402c0,-3.772 2.486,-6.963 5.908,-8.025c0.546,-7.243 6.594,-12.949 13.976,-12.949c5.327,0 9.959,2.971 12.331,7.347m-23.662,31.709l1.263,0l0.257,-1.716l0.423,0l0.862,1.716l1.467,0l-1.187,-2.041c0.658,-0.288 1.028,-0.802 1.028,-1.414c0,-0.499 -0.211,-0.938 -0.567,-1.195c-0.347,-0.25 -0.801,-0.355 -1.55,-0.355c-0.401,0 -0.688,0.015 -1.255,0.075l-0.741,4.93Z" style="fill:#acacac;"/></svg>